<?xml version="1.0" encoding="UTF-8"?>
<svg version="1.1" xmlns="http://www.w3.org/2000/svg" width="2048" height="2048">
<path d="M0 0 C1.45671493 -0.0066644 2.91341615 -0.01727989 4.37007722 -0.03146848 C8.37341846 -0.05903144 12.37469563 -0.0305716 16.37788266 0.00703472 C20.73247113 0.03799122 25.08685397 0.01659644 29.44148391 0.00183731 C37.07330362 -0.01681769 44.70449163 -0.00204872 52.33623791 0.03458118 C63.68422546 0.08889654 75.03181472 0.09160357 86.37990856 0.08370329 C105.46897713 0.07187728 124.55776537 0.10195396 143.64675236 0.15585995 C162.54894109 0.20910169 181.45101308 0.2437511 200.35327625 0.25353527 C201.52827967 0.25415393 202.70328308 0.25477258 203.91389265 0.25540999 C209.88107001 0.25845496 215.84824746 0.26116742 221.81542503 0.26375187 C264.08792346 0.28265877 306.36026935 0.34330382 348.63268185 0.42847538 C389.70135849 0.51112615 430.76999339 0.57488311 471.83873653 0.61304569 C473.73740005 0.6148213 473.73740005 0.6148213 475.67442041 0.61663277 C488.38578665 0.62849938 501.09715323 0.63998172 513.80852008 0.6511825 C539.703355 0.67400881 565.5981872 0.69940008 591.49301815 0.7263422 C592.68363715 0.72757781 593.87425614 0.72881342 595.10095451 0.73008647 C674.61704619 0.81290132 754.1330533 0.95550917 833.64903927 1.10743046 C834.82603391 3.46141973 834.78108123 4.86864541 834.79329109 7.49378014 C834.80335285 8.88500288 834.80335285 8.88500288 834.81361789 10.30433112 C834.8171314 11.84296507 834.8171314 11.84296507 834.8207159 13.41268253 C834.82706501 14.49708848 834.83341412 15.58149443 834.83995563 16.69876117 C834.86010378 20.35686798 834.87308647 24.01496562 834.88609982 27.67310429 C834.89894541 30.28594502 834.91219957 32.89878378 834.9258337 35.51162052 C834.95818828 41.88715424 834.9849986 48.26269977 835.00963648 54.63826755 C835.02967947 59.81982036 835.05127577 65.00136432 835.07397556 70.18290615 C835.1381122 84.86552838 835.19804026 99.54815922 835.25265767 114.23081998 C835.25707823 115.41896458 835.25707823 115.41896458 835.2615881 116.6311121 C835.26453783 117.42417307 835.26748756 118.21723405 835.27052668 119.03432717 C835.31858642 131.88632038 835.37666454 144.73824628 835.43928578 157.59017602 C835.50343092 170.77861163 835.56006194 183.967061 835.60885364 197.15556258 C835.63641368 204.56300431 835.66710186 211.97040288 835.70586872 219.37779522 C835.74226088 226.34374802 835.76824857 233.30967288 835.78714657 240.27569485 C835.79573988 242.83596421 835.80779906 245.39622457 835.82353306 247.95646 C835.84443563 251.44475946 835.8529673 254.93287458 835.85831356 258.42122746 C835.86734807 259.44029126 835.87638258 260.45935506 835.88569087 261.50929958 C835.87331951 271.88315022 835.87331951 271.88315022 832.64903927 275.10743046 C831.02627051 275.20497719 829.39922501 275.23190324 827.77352709 275.23162895 C826.70911765 275.23387625 825.64470821 275.23612354 824.54804394 275.23843893 C823.36185098 275.23581192 822.17565802 275.23318491 820.95351982 275.23047829 C819.0751617 275.23220905 819.0751617 275.23220905 817.15885696 275.23397478 C813.65150124 275.23706391 810.14417419 275.23385215 806.63682059 275.22969665 C802.83305915 275.22627948 799.0293008 275.22862998 795.22553879 275.23027414 C788.54857373 275.23235388 781.87161755 275.23069392 775.19465351 275.22663593 C765.2661415 275.22061848 755.33763513 275.22029849 745.40912163 275.22117792 C728.71045618 275.22249407 712.01179468 275.2191419 695.31313038 275.21316051 C678.77118504 275.20725041 662.22924135 275.20339597 645.68729496 275.2023077 C644.14647362 275.20220459 644.14647362 275.20220459 642.57452458 275.2020994 C637.35816026 275.20176108 632.14179594 275.20145969 626.92543162 275.20117252 C589.94503474 275.1990702 552.96464001 275.19232752 515.98424435 275.18286991 C480.05065071 275.17369061 444.11705767 275.16660448 408.1834631 275.1623621 C407.07649919 275.16223057 405.96953529 275.16209905 404.82902702 275.16196353 C393.7127873 275.16064505 382.59654758 275.15936923 371.48030785 275.15812468 C348.83375723 275.15558823 326.18720665 275.15276698 303.54065609 275.1497736 C302.49932609 275.14963631 301.45799609 275.14949902 300.38511063 275.14935757 C230.80641928 275.14015159 161.22772913 275.12430577 91.64903927 275.10743046 C91.64903927 275.76743046 91.64903927 276.42743046 91.64903927 277.10743046 C90.29357052 278.40430546 90.29357052 278.40430546 88.46153927 279.85743046 C86.03729543 281.85901054 84.18490923 283.6643865 82.14903927 286.10743046 C80.1889436 288.45954526 78.47199778 290.18498203 76.14903927 292.10743046 C73.84977853 294.01111946 72.14549868 295.71426143 70.21153927 298.04493046 C68.25857004 300.37896685 66.6212951 302.05016556 64.33116817 303.9604578 C58.62824815 308.89600258 53.37187536 314.27341714 48.06003094 319.62127399 C46.13628709 321.55792545 44.20931065 323.49130945 42.28151608 325.42392826 C38.1928552 329.52394284 34.10815788 333.62789186 30.02403927 337.73243046 C25.2803849 342.49975785 20.53508086 347.26541902 15.78553295 352.0268755 C13.894648 353.92420358 12.00681899 355.82453592 10.11910152 357.72501469 C8.95263496 358.89511588 7.78602659 360.06507572 6.61925411 361.23487186 C6.10170055 361.75759174 5.584147 362.28031162 5.05091 362.8188715 C1.73736372 366.13289148 -1.73178243 369.13055316 -5.35096073 372.10743046 C-6.94977381 373.81706768 -6.94977381 373.81706768 -8.22596073 375.48243046 C-12.09844441 380.14167203 -16.51472607 385.1620189 -22.35096073 387.10743046 C-23.5597817 389.10759512 -23.5597817 389.10759512 -24.35096073 391.10743046 C-25.01096073 391.10743046 -25.67096073 391.10743046 -26.35096073 391.10743046 C-27.01096073 392.42743046 -27.67096073 393.74743046 -28.35096073 395.10743046 C-29.01096073 395.10743046 -29.67096073 395.10743046 -30.35096073 395.10743046 C-31.01096073 396.42743046 -31.67096073 397.74743046 -32.35096073 399.10743046 C-33.01096073 399.10743046 -33.67096073 399.10743046 -34.35096073 399.10743046 C-35.01096073 400.42743046 -35.67096073 401.74743046 -36.35096073 403.10743046 C-37.01096073 403.10743046 -37.67096073 403.10743046 -38.35096073 403.10743046 C-39.01096073 404.42743046 -39.67096073 405.74743046 -40.35096073 407.10743046 C-41.01096073 407.10743046 -41.67096073 407.10743046 -42.35096073 407.10743046 C-43.01096073 408.42743046 -43.67096073 409.74743046 -44.35096073 411.10743046 C-45.01096073 411.10743046 -45.67096073 411.10743046 -46.35096073 411.10743046 C-47.01096073 412.42743046 -47.67096073 413.74743046 -48.35096073 415.10743046 C-49.01096073 415.10743046 -49.67096073 415.10743046 -50.35096073 415.10743046 C-51.01096073 416.42743046 -51.67096073 417.74743046 -52.35096073 419.10743046 C-53.01096073 419.10743046 -53.67096073 419.10743046 -54.35096073 419.10743046 C-55.01096073 420.42743046 -55.67096073 421.74743046 -56.35096073 423.10743046 C-57.01096073 423.10743046 -57.67096073 423.10743046 -58.35096073 423.10743046 C-59.01096073 424.42743046 -59.67096073 425.74743046 -60.35096073 427.10743046 C-61.01096073 427.10743046 -61.67096073 427.10743046 -62.35096073 427.10743046 C-63.01096073 428.42743046 -63.67096073 429.74743046 -64.35096073 431.10743046 C-65.01096073 431.10743046 -65.67096073 431.10743046 -66.35096073 431.10743046 C-67.01096073 432.42743046 -67.67096073 433.74743046 -68.35096073 435.10743046 C-69.01096073 435.10743046 -69.67096073 435.10743046 -70.35096073 435.10743046 C-71.01096073 436.42743046 -71.67096073 437.74743046 -72.35096073 439.10743046 C-73.01096073 439.10743046 -73.67096073 439.10743046 -74.35096073 439.10743046 C-75.01096073 440.42743046 -75.67096073 441.74743046 -76.35096073 443.10743046 C-77.01096073 443.10743046 -77.67096073 443.10743046 -78.35096073 443.10743046 C-79.01096073 444.42743046 -79.67096073 445.74743046 -80.35096073 447.10743046 C-81.01096073 447.10743046 -81.67096073 447.10743046 -82.35096073 447.10743046 C-82.68096073 448.09743046 -83.01096073 449.08743046 -83.35096073 450.10743046 C-84.86902714 451.5998621 -84.86902714 451.5998621 -86.82752323 453.20508671 C-92.63342689 458.12883499 -97.85914454 463.60243032 -103.16736698 469.05078983 C-103.93693729 469.83131718 -104.70650761 470.61184452 -105.49939823 471.41602421 C-106.19210819 472.12557255 -106.88481815 472.83512089 -107.59851933 473.56617069 C-109.35096073 475.10743046 -109.35096073 475.10743046 -111.35096073 475.10743046 C-111.68096073 476.09743046 -112.01096073 477.08743046 -112.35096073 478.10743046 C-113.78039644 479.30416733 -115.21400929 480.4965286 -116.67517948 481.65430546 C-118.44036803 483.18495847 -119.86630872 484.80547815 -121.35096073 486.60743046 C-124.05243531 489.87171224 -127.09318128 492.39261425 -130.35096073 495.10743046 C-131.37181606 496.2558927 -132.37128008 497.42364968 -133.35096073 498.60743046 C-136.05243531 501.87171224 -139.09318128 504.39261425 -142.35096073 507.10743046 C-143.32979638 508.214638 -144.28737298 509.34090481 -145.22596073 510.48243046 C-147.21972598 512.88833921 -149.24340177 514.94083433 -151.64783573 516.93164921 C-155.6833841 520.41500359 -159.43846457 524.13060127 -163.18689823 527.91602421 C-163.79657444 528.53124943 -164.40625065 529.14647465 -165.03440189 529.78034306 C-167.58579314 532.35934721 -170.13330659 534.94211441 -172.67664433 537.52906132 C-174.55075911 539.4331903 -176.43089395 541.33120443 -178.31189823 543.22852421 C-179.17746845 544.11428387 -179.17746845 544.11428387 -180.06052494 545.01793766 C-181.45317345 546.41938778 -182.8976203 547.76902324 -184.35096073 549.10743046 C-185.01096073 549.10743046 -185.67096073 549.10743046 -186.35096073 549.10743046 C-186.35096073 549.76743046 -186.35096073 550.42743046 -186.35096073 551.10743046 C-187.01096073 551.10743046 -187.67096073 551.10743046 -188.35096073 551.10743046 C-188.35096073 551.76743046 -188.35096073 552.42743046 -188.35096073 553.10743046 C-189.70642948 554.40430546 -189.70642948 554.40430546 -191.53846073 555.85743046 C-193.96270457 557.85901054 -195.81509077 559.6643865 -197.85096073 562.10743046 C-199.8110564 564.45954526 -201.52800222 566.18498203 -203.85096073 568.10743046 C-206.15022147 570.01111946 -207.85450132 571.71426143 -209.78846073 574.04493046 C-211.78038194 576.42551922 -213.51681491 578.17744803 -215.85584354 580.14307499 C-220.60620736 584.25307179 -225.00382406 588.67569347 -229.40835667 593.15079212 C-230.86868255 594.63347531 -232.33322513 596.11187451 -233.79901981 597.58915043 C-237.95988755 601.78332454 -242.1162102 605.98192953 -246.26258183 610.19043827 C-248.81354708 612.77903084 -251.37175766 615.3602696 -253.93476963 617.93693256 C-254.90557846 618.91578308 -255.87360533 619.89740103 -256.83874607 620.88184071 C-258.18321698 622.25276918 -259.53786677 623.61369282 -260.89295292 624.97412968 C-262.04256504 626.13825886 -262.04256504 626.13825886 -263.21540165 627.3259058 C-265.37726764 629.12937619 -266.55300737 629.92960474 -269.35096073 630.10743046 C-273.77050776 627.06285362 -276.96913555 623.28980112 -280.42517948 619.22071171 C-283.16238664 616.21700162 -286.21828191 613.63772025 -289.28846073 610.98243046 C-291.04079391 609.38940029 -292.51115021 607.83271743 -293.97596073 605.98243046 C-296.34184532 603.1184649 -298.81787809 600.96239541 -301.66346073 598.60743046 C-304.18734562 596.36397722 -306.19175604 593.69847609 -308.35096073 591.10743046 C-309.49942297 590.08657513 -310.66717995 589.08711111 -311.85096073 588.10743046 C-315.11524251 585.40595588 -317.63614452 582.36520991 -320.35096073 579.10743046 C-321.49942297 578.08657513 -322.66717995 577.08711111 -323.85096073 576.10743046 C-327.11524251 573.40595588 -329.63614452 570.36520991 -332.35096073 567.10743046 C-333.49942297 566.08657513 -334.66717995 565.08711111 -335.85096073 564.10743046 C-339.11524251 561.40595588 -341.63614452 558.36520991 -344.35096073 555.10743046 C-345.49942297 554.08657513 -346.66717995 553.08711111 -347.85096073 552.10743046 C-351.11524251 549.40595588 -353.63614452 546.36520991 -356.35096073 543.10743046 C-357.49942297 542.08657513 -358.66717995 541.08711111 -359.85096073 540.10743046 C-363.11524251 537.40595588 -365.63614452 534.36520991 -368.35096073 531.10743046 C-369.49942297 530.08657513 -370.66717995 529.08711111 -371.85096073 528.10743046 C-375.11524251 525.40595588 -377.63614452 522.36520991 -380.35096073 519.10743046 C-381.49942297 518.08657513 -382.66717995 517.08711111 -383.85096073 516.10743046 C-387.11524251 513.40595588 -389.63614452 510.36520991 -392.35096073 507.10743046 C-393.49942297 506.08657513 -394.66717995 505.08711111 -395.85096073 504.10743046 C-399.11524251 501.40595588 -401.63614452 498.36520991 -404.35096073 495.10743046 C-405.49942297 494.08657513 -406.66717995 493.08711111 -407.85096073 492.10743046 C-411.11524251 489.40595588 -413.63614452 486.36520991 -416.35096073 483.10743046 C-418.0289638 481.58091377 -419.74781894 480.12885479 -421.50721073 478.69727421 C-423.91485275 476.62119306 -426.10375105 474.35680584 -428.35096073 472.10743046 C-429.91603588 470.58445557 -431.48774675 469.0685241 -433.05967045 467.55262089 C-435.49025364 465.20259309 -437.90472301 462.83628064 -440.31873417 460.46924686 C-441.59573033 459.22265537 -442.87802432 457.98146911 -444.16541386 456.74561405 C-446.03052554 454.95307665 -447.87574903 453.14201705 -449.71814823 451.32618046 C-450.29821629 450.77708012 -450.87828434 450.22797977 -451.47593021 449.66224003 C-453.0653162 448.07422733 -453.0653162 448.07422733 -455.35096073 445.10743046 C-455.28517073 440.2165521 -452.43731719 437.6339747 -449.13779259 434.39927769 C-448.58633813 433.84290825 -448.03488367 433.28653882 -447.46671847 432.71330971 C-445.60616992 430.84112002 -443.73162974 428.98359664 -441.8568964 427.12561893 C-440.51064588 425.77690921 -439.165273 424.42732296 -437.82070655 423.07693434 C-434.11520464 419.36051809 -430.39729393 415.65673416 -426.67729175 411.95483994 C-422.67063166 407.96336173 -418.67548968 403.96038456 -414.67893314 399.95879459 C-406.84392962 392.11755548 -398.99834021 384.28699024 -391.14925883 376.4598459 C-382.01299097 367.34823414 -372.88758564 358.22577611 -363.76273855 349.10272938 C-347.48171917 332.8255896 -331.19143474 316.55776234 -314.89563847 300.29541874 C-299.07716295 284.5094005 -283.26429062 268.71779975 -267.45813847 252.91944218 C-266.97141209 252.43295884 -266.48468571 251.94647551 -265.98321005 251.44525025 C-263.53166433 248.9949266 -261.08012799 246.54459357 -258.6285951 244.09425709 C-258.14482249 243.61072075 -257.66104989 243.12718442 -257.16261751 242.62899547 C-256.18710672 241.65395885 -255.21159793 240.67892022 -254.23609115 239.70387957 C-238.69694518 224.17220983 -223.15362542 208.64471798 -207.60927222 193.11825982 C-203.05835897 188.57258306 -198.5075975 184.02675459 -193.95720601 179.48055553 C-184.38557856 169.91785074 -174.81252419 160.35658291 -165.23493407 150.79984963 C-161.2735759 146.84708615 -157.31297477 142.89357257 -153.35449505 138.93792629 C-149.73140157 135.31750217 -146.10600474 131.69940141 -142.47873744 128.08315915 C-141.16623571 126.77385989 -139.85456562 125.46372632 -138.5438088 124.15268022 C-136.76259816 122.37134405 -134.97836094 120.59309459 -133.19333458 118.81558323 C-132.68476155 118.30552658 -132.17618852 117.79546992 -131.65220419 117.26995701 C-128.36320763 114.00329082 -124.92328979 111.05161731 -121.35096073 108.10743046 C-120.3135188 106.97392909 -119.30530903 105.81172712 -118.35096073 104.60743046 C-115.64948616 101.34314868 -112.60874018 98.82224667 -109.35096073 96.10743046 C-108.33010541 94.95896822 -107.33064138 93.79121124 -106.35096073 92.60743046 C-103.64948616 89.34314868 -100.60874018 86.82224667 -97.35096073 84.10743046 C-96.33010541 82.95896822 -95.33064138 81.79121124 -94.35096073 80.60743046 C-91.64948616 77.34314868 -88.60874018 74.82224667 -85.35096073 72.10743046 C-84.33010541 70.95896822 -83.33064138 69.79121124 -82.35096073 68.60743046 C-79.64948616 65.34314868 -76.60874018 62.82224667 -73.35096073 60.10743046 C-72.33010541 58.95896822 -71.33064138 57.79121124 -70.35096073 56.60743046 C-67.64948616 53.34314868 -64.60874018 50.82224667 -61.35096073 48.10743046 C-60.33010541 46.95896822 -59.33064138 45.79121124 -58.35096073 44.60743046 C-55.64948616 41.34314868 -52.60874018 38.82224667 -49.35096073 36.10743046 C-48.33010541 34.95896822 -47.33064138 33.79121124 -46.35096073 32.60743046 C-43.64948616 29.34314868 -40.60874018 26.82224667 -37.35096073 24.10743046 C-36.37212508 23.00022292 -35.41454849 21.87395611 -34.47596073 20.73243046 C-31.77450003 17.47664406 -28.82506525 14.79199279 -25.5629687 12.10554596 C-23.30070408 10.16157005 -23.30070408 10.16157005 -21.47780115 7.82360965 C-15.1119135 0.2370335 -9.49045866 -0.17323657 0 0 Z " fill="#020506" transform="translate(1017.3509607315063,483.89256954193115)"/>
<path d="M0 0 C3.5135566 0.62730425 5.53206864 1.03034366 8.05859375 3.60449219 C8.60265869 4.14885925 9.14672363 4.69322632 9.70727539 5.25408936 C10.27824951 5.84570862 10.84922363 6.43732788 11.4375 7.046875 C12.04005615 7.65509094 12.6426123 8.26330688 13.26342773 8.88995361 C15.18523087 10.83409606 17.0926829 12.79165422 19 14.75 C20.28292389 16.05299993 21.56676882 17.35509369 22.8515625 18.65625 C25.2206135 21.05790192 27.58413322 23.46471811 29.94140625 25.87792969 C33.35059707 29.36434879 36.76971667 32.83621847 40.3125 36.1875 C42 38 42 38 42 40 C42.99 40.33 43.98 40.66 45 41 C46.19673687 42.4294357 47.38909815 43.86304856 48.546875 45.32421875 C50.07752801 47.0894073 51.69804769 48.51534799 53.5 50 C56.76428178 52.70147457 59.28518379 55.74222055 62 59 C63.14846224 60.02085532 64.31621922 61.02031935 65.5 62 C68.76428178 64.70147457 71.28518379 67.74222055 74 71 C75.14846224 72.02085532 76.31621922 73.02031935 77.5 74 C80.76428178 76.70147457 83.28518379 79.74222055 86 83 C87.14846224 84.02085532 88.31621922 85.02031935 89.5 86 C92.76428178 88.70147457 95.28518379 91.74222055 98 95 C99.14846224 96.02085532 100.31621922 97.02031935 101.5 98 C104.76428178 100.70147457 107.28518379 103.74222055 110 107 C111.14846224 108.02085532 112.31621922 109.02031935 113.5 110 C116.76428178 112.70147457 119.28518379 115.74222055 122 119 C123.14846224 120.02085532 124.31621922 121.02031935 125.5 122 C128.76428178 124.70147457 131.28518379 127.74222055 134 131 C135.10720754 131.97883565 136.23347435 132.93641225 137.375 133.875 C140.77330234 136.68229324 143.52883695 139.83309355 146.375 143.1875 C148.37483778 145.4180883 150.6522909 147.14654544 153 149 C153.804375 149.969375 154.60875 150.93875 155.4375 151.9375 C157.61704252 154.54231911 159.78195934 156.5014403 162.41897583 158.60894775 C164.18601139 160.16366073 165.65065928 161.83564556 167.17138672 163.63183594 C171.05525426 168.12181351 175.18055765 172.3249333 179.3828125 176.515625 C180.16010712 177.29387634 180.93740173 178.07212769 181.73825073 178.8739624 C183.36903175 180.50541935 185.00105793 182.13563252 186.63427734 183.76464844 C189.12843699 186.25342958 191.6171854 188.74753274 194.10546875 191.2421875 C195.69759595 192.83365424 197.29003315 194.42481094 198.8828125 196.015625 C199.99234787 197.12819672 199.99234787 197.12819672 201.1242981 198.26324463 C204.61466885 201.73784783 208.12442256 204.95232556 212 208 C213.01247084 209.0899418 213.9915644 210.21191205 214.93359375 211.36328125 C220.0246173 217.31130525 225.61947323 222.76849669 231.16137695 228.29174805 C233.06512797 230.19012055 234.96345124 232.09380374 236.86132812 233.99804688 C238.08561686 235.22167506 239.31021563 236.44499315 240.53515625 237.66796875 C241.37446434 238.51031319 241.37446434 238.51031319 242.23072815 239.36967468 C244.81562531 241.93941371 247.42345891 244.39748724 250.24389648 246.70825195 C253.25918884 249.21552004 255.5306446 251.96079336 258 255 C259.64783606 256.68528688 261.31002677 258.35697047 263 260 C264.85062668 261.85062668 264.12719842 264.89029888 264.12863445 267.36440945 C264.13038749 268.04031357 264.13214053 268.7162177 264.13394669 269.41260377 C264.13864493 271.70587008 264.13613146 273.99907405 264.13371277 276.29234314 C264.13557882 277.94170149 264.13787869 279.59105939 264.14057809 281.24041659 C264.14672795 285.79493055 264.14655878 290.34942625 264.14538372 294.90394342 C264.14518051 299.80721662 264.15069077 304.71048383 264.15544128 309.61375427 C264.16376576 319.22831317 264.16649693 328.84286595 264.16705366 338.45742815 C264.16752796 346.26822064 264.16957838 354.07901109 264.17275429 361.88980293 C264.18156566 384.00877585 264.18617289 406.1277439 264.18542381 428.24671858 C264.18536388 430.03727965 264.18536388 430.03727965 264.18530273 431.86401367 C264.18526185 433.05916946 264.18522097 434.25432524 264.18517885 435.48569787 C264.18477221 454.8644713 264.19434498 474.24322531 264.2084411 493.62199312 C264.22278288 513.49443389 264.2297125 533.36686519 264.22884732 553.23931128 C264.2285146 564.40646119 264.23129462 575.57359074 264.24202538 586.74073601 C264.25110152 596.24730869 264.25332952 605.7538518 264.24651595 615.26042693 C264.2432361 620.11526617 264.24324642 624.97004857 264.2518692 629.82488251 C264.25967096 634.26291323 264.25836835 638.70084144 264.24958507 643.13886947 C264.248036 644.75057424 264.24991842 646.36228641 264.25544515 647.97398245 C264.26242565 650.15269838 264.25727523 652.3310467 264.24888897 654.50974941 C264.24921502 656.33045473 264.24921502 656.33045473 264.24954766 658.18794197 C264 661 264 661 262 663 C260.09433943 663.25069833 260.09433943 663.25069833 257.71738529 663.25168228 C256.36088811 663.25950552 256.36088811 663.25950552 254.97698694 663.26748681 C253.47716159 663.26079465 253.47716159 663.26079465 251.94703674 663.25396729 C250.88980453 663.25708727 249.83257232 663.26020725 248.74330276 663.26342177 C245.17720157 663.27144124 241.61126868 663.26506275 238.04516602 663.25878906 C235.49804585 663.26149719 232.95092648 663.26505711 230.40380859 663.26940918 C224.18933314 663.27760571 217.97492069 663.27637339 211.76044435 663.2705839 C206.71093263 663.26607381 201.66143446 663.26545167 196.61192131 663.26763153 C195.8942399 663.267938 195.17655849 663.26824446 194.43712915 663.26856022 C192.97932641 663.26919964 191.52152367 663.26984807 190.06372093 663.2705054 C176.38107363 663.27621388 162.6984531 663.2696429 149.01581018 663.25890467 C137.26825783 663.24997059 125.520745 663.25151901 113.77319336 663.26074219 C100.14227568 663.27143897 86.51138149 663.2756625 72.8804602 663.26951766 C71.42760496 663.26888054 69.97474971 663.2682518 68.52189445 663.26763153 C67.44955578 663.2671687 67.44955578 663.2671687 66.35555371 663.26669653 C61.31096464 663.26496766 56.26639043 663.26788884 51.22180367 663.27259064 C44.43474254 663.27877722 37.64776779 663.27438877 30.86071014 663.26280212 C28.36411857 663.26014913 25.86752074 663.26093145 23.37093163 663.26532745 C19.97385053 663.2707592 16.57701235 663.26397754 13.1799469 663.25396729 C11.68346763 663.26065945 11.68346763 663.26065945 10.15675646 663.26748681 C9.24981726 663.26227132 8.34287806 663.25705582 7.40845585 663.25168228 C6.62389863 663.25135758 5.83934141 663.25103287 5.03100973 663.25069833 C3 663 3 663 0 661 C-1.52782426 655.52520833 -1.13049286 649.67390891 -1.10743046 644.03233528 C-1.10689593 642.91952745 -1.1063614 641.80671962 -1.10581067 640.66019034 C-1.10276923 636.91081771 -1.09249614 633.16149938 -1.08229065 629.41213989 C-1.07803612 626.70521829 -1.07530565 623.99829563 -1.07250541 621.29137218 C-1.06559694 615.39553 -1.05493662 609.49970382 -1.04183006 603.6038723 C-1.022358 594.83697119 -1.00866679 586.07006775 -0.99616829 577.30315427 C-0.97498021 562.55619147 -0.94909167 547.80924041 -0.92053413 533.06229019 C-0.89226954 518.45870413 -0.86608807 503.85511678 -0.84269524 489.25152206 C-0.84124015 488.34387736 -0.83978506 487.43623266 -0.83828588 486.50108357 C-0.83090724 481.89170795 -0.82356588 477.28233227 -0.81623887 472.67295657 C-0.76426019 440.01568755 -0.70760103 407.35842816 -0.64819336 374.70117188 C-0.59048649 342.97298552 -0.53489718 311.24479661 -0.48217773 279.51660156 C-0.48055215 278.5387841 -0.47892657 277.56096663 -0.47725173 276.55351833 C-0.46092946 266.73396917 -0.44465028 256.91441993 -0.42840267 247.09487064 C-0.39530275 227.09090577 -0.36191525 207.08694139 -0.32835388 187.08297729 C-0.3268111 186.16320579 -0.32526832 185.24343429 -0.32367879 184.29579092 C-0.22060295 122.86385222 -0.11082321 61.43192515 0 0 Z " fill="#020403" transform="translate(245,778)"/>
<path d="M0 0 C0.76769562 -0.00145344 1.53539124 -0.00290688 2.32635036 -0.00440437 C4.91982358 -0.00807747 7.51323851 -0.00457188 10.10671139 -0.0011425 C11.97641004 -0.0022938 13.84610847 -0.00388138 15.71580642 -0.00586975 C20.87008618 -0.01006183 26.02434753 -0.00797291 31.17862737 -0.00488353 C36.73081329 -0.00262918 42.28299595 -0.00610921 47.83518124 -0.00886345 C58.71814676 -0.01331967 69.6011054 -0.01234536 80.4840712 -0.00945081 C89.32504072 -0.00719631 98.16600831 -0.00688445 107.00697803 -0.00797462 C108.26323276 -0.00812786 109.51948749 -0.00828109 110.81381054 -0.00843897 C113.36551548 -0.00875868 115.91722041 -0.00908289 118.46892535 -0.00941156 C141.73573752 -0.01218445 165.00254565 -0.00930452 188.26935696 -0.00406896 C209.52397659 0.00067742 230.77859023 0.00025174 252.0332098 -0.00452995 C275.89670056 -0.00988058 299.76018802 -0.01199178 323.62367958 -0.00891769 C326.16591513 -0.00859912 328.70815068 -0.00828475 331.25038624 -0.00797462 C332.5013618 -0.00782035 333.75233737 -0.00766607 335.04122128 -0.00750712 C343.87690063 -0.00664198 352.71257786 -0.00810477 361.54825687 -0.01045418 C372.30824947 -0.01325225 383.06823476 -0.01251373 393.82822651 -0.00717343 C399.32304724 -0.00453661 404.81785578 -0.00353106 410.31267643 -0.00682259 C415.33533449 -0.00978589 420.35796898 -0.00819215 425.38062488 -0.00284503 C427.2049192 -0.001721 429.02921547 -0.00231172 430.85350854 -0.00472082 C433.31883122 -0.0077286 435.7840714 -0.00467632 438.24938965 0 C439.33037502 -0.00351175 439.33037502 -0.00351175 440.43319848 -0.00709444 C445.33347346 0.01169075 445.33347346 0.01169075 447.56177425 1.12584114 C447.23177425 2.77584114 446.90177425 4.42584114 446.56177425 6.12584114 C445.90177425 6.12584114 445.24177425 6.12584114 444.56177425 6.12584114 C444.33747738 6.66724739 444.1131805 7.20865364 443.88208675 7.76646614 C442.14877299 10.86386707 439.8504675 13.30547815 437.43677425 15.87584114 C436.94467464 16.40661263 436.45257504 16.93738411 435.94556332 17.48423958 C432.51453317 21.16528624 428.98138715 24.73007985 425.39771175 28.26255989 C421.7064344 32.00881371 418.33559831 36.03723776 414.932868 40.04380989 C409.24303811 46.73185555 409.24303811 46.73185555 406.56177425 49.12584114 C405.90177425 49.12584114 405.24177425 49.12584114 404.56177425 49.12584114 C404.31427425 49.68787239 404.06677425 50.24990364 403.81177425 50.82896614 C402.34902558 53.51676683 400.59372552 55.58989596 398.56177425 57.87584114 C397.86052425 58.67505989 397.15927425 59.47427864 396.43677425 60.29771614 C394.56177425 62.12584114 394.56177425 62.12584114 392.56177425 62.12584114 C391.90177425 63.44584114 391.24177425 64.76584114 390.56177425 66.12584114 C389.90177425 66.12584114 389.24177425 66.12584114 388.56177425 66.12584114 C387.90177425 67.44584114 387.24177425 68.76584114 386.56177425 70.12584114 C385.90177425 70.12584114 385.24177425 70.12584114 384.56177425 70.12584114 C384.16889217 71.00200081 384.16889217 71.00200081 383.76807308 71.89586067 C382.49542019 74.24850416 381.10903903 75.87848024 379.260993 77.80552864 C378.6132391 78.4874427 377.96548519 79.16935677 377.29810238 79.87193489 C376.6219891 80.57447395 375.94587582 81.27701302 375.24927425 82.00084114 C370.85465749 86.59579446 366.59649513 91.21147842 362.56177425 96.12584114 C360.89510759 97.79250781 359.22844092 99.45917447 357.56177425 101.12584114 C356.40986299 102.45392707 355.26446689 103.787681 354.12427425 105.12584114 C351.19222676 108.52017689 348.00991853 111.25238758 344.56177425 114.12584114 C341.50033284 117.38394903 338.55567108 120.71475306 335.979743 124.37193489 C335.51181332 124.95072395 335.04388363 125.52951302 334.56177425 126.12584114 C333.90177425 126.12584114 333.24177425 126.12584114 332.56177425 126.12584114 C331.90177425 127.44584114 331.24177425 128.76584114 330.56177425 130.12584114 C329.90177425 130.12584114 329.24177425 130.12584114 328.56177425 130.12584114 C327.90177425 131.44584114 327.24177425 132.76584114 326.56177425 134.12584114 C325.90177425 134.12584114 325.24177425 134.12584114 324.56177425 134.12584114 C324.33747738 134.66724739 324.1131805 135.20865364 323.88208675 135.76646614 C322.1487666 138.86387849 319.85039595 141.3053953 317.43677425 143.87584114 C316.94902523 144.40226204 316.46127621 144.92868294 315.95874691 145.47105598 C312.40974094 149.28045414 308.76512962 152.98218718 305.02271175 156.60240364 C303.46115135 158.08017438 303.46115135 158.08017438 302.56177425 160.12584114 C301.90177425 160.12584114 301.24177425 160.12584114 300.56177425 160.12584114 C300.30009457 160.71623177 300.03841488 161.30662239 299.7688055 161.91490364 C298.49782546 164.24297713 297.17047074 165.68614114 295.24927425 167.50084114 C292.99128694 169.68855914 290.86099866 171.87621027 288.87427425 174.31334114 C286.87127065 176.7494266 284.90931057 179.02115341 282.56177425 181.12584114 C281.90177425 181.12584114 281.24177425 181.12584114 280.56177425 181.12584114 C280.31427425 181.68787239 280.06677425 182.24990364 279.81177425 182.82896614 C278.34902558 185.51676683 276.59372552 187.58989596 274.56177425 189.87584114 C273.86052425 190.67505989 273.15927425 191.47427864 272.43677425 192.29771614 C270.56177425 194.12584114 270.56177425 194.12584114 268.56177425 194.12584114 C267.90177425 195.44584114 267.24177425 196.76584114 266.56177425 198.12584114 C265.90177425 198.12584114 265.24177425 198.12584114 264.56177425 198.12584114 C263.90177425 199.44584114 263.24177425 200.76584114 262.56177425 202.12584114 C261.90177425 202.12584114 261.24177425 202.12584114 260.56177425 202.12584114 C259.90177425 203.44584114 259.24177425 204.76584114 258.56177425 206.12584114 C257.90177425 206.12584114 257.24177425 206.12584114 256.56177425 206.12584114 C256.29477718 206.71429817 256.02778011 207.3027552 255.75269222 207.90904427 C254.54089089 210.16471382 253.26119807 211.73870901 251.50708675 213.59459114 C250.89752132 214.24282845 250.28795589 214.89106575 249.65991879 215.55894661 C248.68321224 216.5820594 248.68321224 216.5820594 247.68677425 217.62584114 C247.02145687 218.3298304 246.35613949 219.03381966 245.67066097 219.75914192 C240.92212827 224.76147356 236.09182732 229.67724867 231.15601254 234.49498177 C228.51997441 237.05123364 228.51997441 237.05123364 226.56177425 240.12584114 C225.90177425 240.12584114 225.24177425 240.12584114 224.56177425 240.12584114 C224.329743 240.68658333 224.09771175 241.24732552 223.85864925 241.82505989 C222.2310033 244.71266069 220.19917594 246.64137134 217.81177425 248.93834114 C214.28778001 252.38616836 210.96589315 255.87494483 207.80396175 259.65318489 C206.15837588 261.60408387 204.46612849 263.42552486 202.56177425 265.12584114 C201.90177425 265.12584114 201.24177425 265.12584114 200.56177425 265.12584114 C200.31427425 265.72396614 200.06677425 266.32209114 199.81177425 266.93834114 C198.30888617 269.56839529 197.17675643 270.58421156 194.56177425 272.12584114 C191.4383496 272.50188863 191.4383496 272.50188863 187.67204762 272.50336456 C186.97579822 272.50772489 186.27954883 272.51208521 185.56220096 272.51657766 C183.21761442 272.52756914 180.87361163 272.51709418 178.52902889 272.50679207 C176.83583083 272.51024709 175.14263502 272.5150106 173.44944394 272.5209738 C168.78763642 272.53353461 164.12601238 272.52729042 159.46420407 272.51801515 C154.44031813 272.51124584 149.41646441 272.52169526 144.3925848 272.52995491 C134.5478079 272.54331655 124.70309949 272.54040386 114.85831986 272.53171699 C106.86071402 272.52495117 98.86312741 272.52401894 90.86551952 272.52728844 C89.16035147 272.52797799 89.16035147 272.52797799 87.42073558 272.52868146 C85.11166317 272.5296406 82.80259076 272.53061324 80.49351837 272.53159924 C58.82626859 272.54016005 37.15905685 272.53030775 15.49181332 272.51419814 C-3.11753515 272.50079073 -21.7268275 272.50312521 -40.33617496 272.51695442 C-61.92719888 272.53299181 -83.51818944 272.53933983 -105.10921848 272.53011763 C-107.4093465 272.52916194 -109.70947452 272.52821883 -112.00960255 272.52728844 C-113.14142638 272.52682561 -114.27325022 272.52636278 -115.43937174 272.52588593 C-123.43248871 272.52329078 -131.4255846 272.52767825 -139.41869831 272.5347271 C-149.1521226 272.54312171 -158.88547426 272.54090491 -168.61889018 272.52488486 C-173.58921044 272.51697514 -178.5594094 272.51395632 -183.52972889 272.52383232 C-188.0731643 272.53272392 -192.61636515 272.52793863 -197.15977906 272.51189966 C-198.80974909 272.50852827 -200.45973864 272.51029828 -202.10969628 272.51752703 C-204.34014598 272.52655493 -206.5697757 272.51739123 -208.80018139 272.50336456 C-210.04273634 272.50287751 -211.28529129 272.50239045 -212.56549942 272.50188863 C-213.51349911 272.37779296 -214.4614988 272.25369729 -215.43822575 272.12584114 C-217.7612018 268.64137706 -217.67182134 267.35542313 -217.62108707 263.24913216 C-217.61059834 262.04100365 -217.6001096 260.83287514 -217.58930302 259.58813667 C-217.55512524 257.62873398 -217.55512524 257.62873398 -217.520257 255.62974739 C-217.50169334 254.27598893 -217.48360831 252.92222382 -217.46598148 251.56845284 C-217.42648512 248.73122401 -217.37912462 245.894255 -217.32665348 243.05723763 C-217.26038814 239.42463661 -217.21673441 235.79216618 -217.17939568 232.15916729 C-217.14761986 229.36312291 -217.10223061 226.56742205 -217.05291653 223.77163696 C-217.02069898 221.78204197 -217.00120146 219.79225417 -216.98188114 217.80249214 C-216.9556316 216.59121147 -216.92938206 215.3799308 -216.90233707 214.13194466 C-216.88520161 213.06621727 -216.86806614 212.00048988 -216.85041142 210.90246773 C-216.38813873 207.78843751 -215.63097094 206.35791508 -213.43822575 204.12584114 C-212.77822575 204.12584114 -212.11822575 204.12584114 -211.43822575 204.12584114 C-211.43822575 203.46584114 -211.43822575 202.80584114 -211.43822575 202.12584114 C-210.77822575 202.12584114 -210.11822575 202.12584114 -209.43822575 202.12584114 C-209.43822575 201.46584114 -209.43822575 200.80584114 -209.43822575 200.12584114 C-208.77822575 200.12584114 -208.11822575 200.12584114 -207.43822575 200.12584114 C-207.43822575 199.46584114 -207.43822575 198.80584114 -207.43822575 198.12584114 C-206.77822575 198.12584114 -206.11822575 198.12584114 -205.43822575 198.12584114 C-205.43822575 197.46584114 -205.43822575 196.80584114 -205.43822575 196.12584114 C-204.77822575 196.12584114 -204.11822575 196.12584114 -203.43822575 196.12584114 C-203.43822575 195.46584114 -203.43822575 194.80584114 -203.43822575 194.12584114 C-202.77822575 194.12584114 -202.11822575 194.12584114 -201.43822575 194.12584114 C-201.43822575 193.46584114 -201.43822575 192.80584114 -201.43822575 192.12584114 C-200.77822575 192.12584114 -200.11822575 192.12584114 -199.43822575 192.12584114 C-199.43822575 191.46584114 -199.43822575 190.80584114 -199.43822575 190.12584114 C-198.77822575 190.12584114 -198.11822575 190.12584114 -197.43822575 190.12584114 C-197.43822575 189.46584114 -197.43822575 188.80584114 -197.43822575 188.12584114 C-196.77822575 188.12584114 -196.11822575 188.12584114 -195.43822575 188.12584114 C-195.43822575 187.46584114 -195.43822575 186.80584114 -195.43822575 186.12584114 C-194.77822575 186.12584114 -194.11822575 186.12584114 -193.43822575 186.12584114 C-193.43822575 185.46584114 -193.43822575 184.80584114 -193.43822575 184.12584114 C-192.77822575 184.12584114 -192.11822575 184.12584114 -191.43822575 184.12584114 C-191.21006168 183.57315559 -190.98189762 183.02047005 -190.7468195 182.45103645 C-189.05977056 179.45337712 -186.93010057 177.35819054 -184.50072575 174.92271614 C-184.019986 174.44006294 -183.53924625 173.95740974 -183.04393864 173.46013069 C-182.03101482 172.4458505 -181.01557937 171.4340731 -179.99779606 170.42466927 C-178.4364941 168.87412142 -176.88620078 167.31313611 -175.33666325 165.75084114 C-174.35032514 164.76582381 -173.36336725 163.78142661 -172.37572575 162.79771614 C-171.47724918 161.90149544 -170.57877262 161.00527473 -169.6530695 160.08189583 C-167.43822575 158.12584114 -167.43822575 158.12584114 -165.43822575 158.12584114 C-165.43822575 157.46584114 -165.43822575 156.80584114 -165.43822575 156.12584114 C-164.77822575 156.12584114 -164.11822575 156.12584114 -163.43822575 156.12584114 C-163.43822575 155.46584114 -163.43822575 154.80584114 -163.43822575 154.12584114 C-162.77822575 154.12584114 -162.11822575 154.12584114 -161.43822575 154.12584114 C-161.43822575 153.46584114 -161.43822575 152.80584114 -161.43822575 152.12584114 C-160.77822575 152.12584114 -160.11822575 152.12584114 -159.43822575 152.12584114 C-159.43822575 151.46584114 -159.43822575 150.80584114 -159.43822575 150.12584114 C-157.56322575 148.00084114 -157.56322575 148.00084114 -155.43822575 146.12584114 C-154.77822575 146.12584114 -154.11822575 146.12584114 -153.43822575 146.12584114 C-153.43822575 145.46584114 -153.43822575 144.80584114 -153.43822575 144.12584114 C-152.77822575 144.12584114 -152.11822575 144.12584114 -151.43822575 144.12584114 C-151.43822575 143.46584114 -151.43822575 142.80584114 -151.43822575 142.12584114 C-150.77822575 142.12584114 -150.11822575 142.12584114 -149.43822575 142.12584114 C-149.43822575 141.46584114 -149.43822575 140.80584114 -149.43822575 140.12584114 C-148.77822575 140.12584114 -148.11822575 140.12584114 -147.43822575 140.12584114 C-147.43822575 139.46584114 -147.43822575 138.80584114 -147.43822575 138.12584114 C-146.77822575 138.12584114 -146.11822575 138.12584114 -145.43822575 138.12584114 C-145.43822575 137.46584114 -145.43822575 136.80584114 -145.43822575 136.12584114 C-144.77822575 136.12584114 -144.11822575 136.12584114 -143.43822575 136.12584114 C-143.43822575 135.46584114 -143.43822575 134.80584114 -143.43822575 134.12584114 C-142.77822575 134.12584114 -142.11822575 134.12584114 -141.43822575 134.12584114 C-141.43822575 133.46584114 -141.43822575 132.80584114 -141.43822575 132.12584114 C-140.77822575 132.12584114 -140.11822575 132.12584114 -139.43822575 132.12584114 C-139.43822575 131.46584114 -139.43822575 130.80584114 -139.43822575 130.12584114 C-138.77822575 130.12584114 -138.11822575 130.12584114 -137.43822575 130.12584114 C-137.43822575 129.46584114 -137.43822575 128.80584114 -137.43822575 128.12584114 C-136.77822575 128.12584114 -136.11822575 128.12584114 -135.43822575 128.12584114 C-135.43822575 127.46584114 -135.43822575 126.80584114 -135.43822575 126.12584114 C-134.77822575 126.12584114 -134.11822575 126.12584114 -133.43822575 126.12584114 C-133.43822575 125.46584114 -133.43822575 124.80584114 -133.43822575 124.12584114 C-132.77822575 124.12584114 -132.11822575 124.12584114 -131.43822575 124.12584114 C-131.43822575 123.46584114 -131.43822575 122.80584114 -131.43822575 122.12584114 C-129.56322575 120.00084114 -129.56322575 120.00084114 -127.43822575 118.12584114 C-126.77822575 118.12584114 -126.11822575 118.12584114 -125.43822575 118.12584114 C-125.43822575 117.46584114 -125.43822575 116.80584114 -125.43822575 116.12584114 C-124.77822575 116.12584114 -124.11822575 116.12584114 -123.43822575 116.12584114 C-123.19072575 115.50709114 -122.94322575 114.88834114 -122.68822575 114.25084114 C-121.23193935 111.77515427 -120.06010068 111.17459112 -117.43822575 110.12584114 C-117.43822575 109.46584114 -117.43822575 108.80584114 -117.43822575 108.12584114 C-116.77822575 108.12584114 -116.11822575 108.12584114 -115.43822575 108.12584114 C-115.43822575 107.46584114 -115.43822575 106.80584114 -115.43822575 106.12584114 C-114.77822575 106.12584114 -114.11822575 106.12584114 -113.43822575 106.12584114 C-113.43822575 105.46584114 -113.43822575 104.80584114 -113.43822575 104.12584114 C-112.77822575 104.12584114 -112.11822575 104.12584114 -111.43822575 104.12584114 C-111.43822575 103.46584114 -111.43822575 102.80584114 -111.43822575 102.12584114 C-110.77822575 102.12584114 -110.11822575 102.12584114 -109.43822575 102.12584114 C-109.43822575 101.46584114 -109.43822575 100.80584114 -109.43822575 100.12584114 C-108.77822575 100.12584114 -108.11822575 100.12584114 -107.43822575 100.12584114 C-107.43822575 99.46584114 -107.43822575 98.80584114 -107.43822575 98.12584114 C-106.77822575 98.12584114 -106.11822575 98.12584114 -105.43822575 98.12584114 C-105.43822575 97.46584114 -105.43822575 96.80584114 -105.43822575 96.12584114 C-104.77822575 96.12584114 -104.11822575 96.12584114 -103.43822575 96.12584114 C-103.43822575 95.46584114 -103.43822575 94.80584114 -103.43822575 94.12584114 C-102.77822575 94.12584114 -102.11822575 94.12584114 -101.43822575 94.12584114 C-101.43822575 93.46584114 -101.43822575 92.80584114 -101.43822575 92.12584114 C-100.77822575 92.12584114 -100.11822575 92.12584114 -99.43822575 92.12584114 C-99.43822575 91.46584114 -99.43822575 90.80584114 -99.43822575 90.12584114 C-98.77822575 90.12584114 -98.11822575 90.12584114 -97.43822575 90.12584114 C-97.43822575 89.46584114 -97.43822575 88.80584114 -97.43822575 88.12584114 C-96.77822575 88.12584114 -96.11822575 88.12584114 -95.43822575 88.12584114 C-95.43822575 87.46584114 -95.43822575 86.80584114 -95.43822575 86.12584114 C-94.77822575 86.12584114 -94.11822575 86.12584114 -93.43822575 86.12584114 C-93.43822575 85.46584114 -93.43822575 84.80584114 -93.43822575 84.12584114 C-92.77822575 84.12584114 -92.11822575 84.12584114 -91.43822575 84.12584114 C-91.43822575 83.46584114 -91.43822575 82.80584114 -91.43822575 82.12584114 C-90.77822575 82.12584114 -90.11822575 82.12584114 -89.43822575 82.12584114 C-89.43822575 81.46584114 -89.43822575 80.80584114 -89.43822575 80.12584114 C-88.77822575 80.12584114 -88.11822575 80.12584114 -87.43822575 80.12584114 C-87.16526676 79.52821968 -86.89230778 78.93059822 -86.61107731 78.31486702 C-85.47122706 76.18743524 -84.36607631 74.80043642 -82.67260075 73.10142708 C-82.11862614 72.54114815 -81.56465153 71.98086922 -80.99388981 71.40361214 C-80.39802067 70.81179146 -79.80215153 70.21997078 -79.18822575 69.61021614 C-78.57430973 68.99438667 -77.96039371 68.37855721 -77.32787418 67.74406624 C-76.03248091 66.44731468 -74.73456931 65.15307457 -73.4343195 63.8611927 C-71.43847507 61.87608912 -69.45355849 59.88050523 -67.46947575 57.88365364 C-66.20970019 56.62519903 -64.94930473 55.3673646 -63.68822575 54.11021614 C-63.09235661 53.51029854 -62.49648746 52.91038094 -61.88256168 52.29228401 C-57.66815821 48.12584114 -57.66815821 48.12584114 -55.43822575 48.12584114 C-55.43822575 47.46584114 -55.43822575 46.80584114 -55.43822575 46.12584114 C-54.77822575 46.12584114 -54.11822575 46.12584114 -53.43822575 46.12584114 C-53.43822575 45.46584114 -53.43822575 44.80584114 -53.43822575 44.12584114 C-52.77822575 44.12584114 -52.11822575 44.12584114 -51.43822575 44.12584114 C-51.43822575 43.46584114 -51.43822575 42.80584114 -51.43822575 42.12584114 C-50.77822575 42.12584114 -50.11822575 42.12584114 -49.43822575 42.12584114 C-49.43822575 41.46584114 -49.43822575 40.80584114 -49.43822575 40.12584114 C-48.77822575 40.12584114 -48.11822575 40.12584114 -47.43822575 40.12584114 C-47.43822575 39.46584114 -47.43822575 38.80584114 -47.43822575 38.12584114 C-46.77822575 38.12584114 -46.11822575 38.12584114 -45.43822575 38.12584114 C-45.43822575 37.46584114 -45.43822575 36.80584114 -45.43822575 36.12584114 C-44.77822575 36.12584114 -44.11822575 36.12584114 -43.43822575 36.12584114 C-43.43822575 35.46584114 -43.43822575 34.80584114 -43.43822575 34.12584114 C-42.77822575 34.12584114 -42.11822575 34.12584114 -41.43822575 34.12584114 C-41.43822575 33.46584114 -41.43822575 32.80584114 -41.43822575 32.12584114 C-40.77822575 32.12584114 -40.11822575 32.12584114 -39.43822575 32.12584114 C-39.43822575 31.46584114 -39.43822575 30.80584114 -39.43822575 30.12584114 C-38.77822575 30.12584114 -38.11822575 30.12584114 -37.43822575 30.12584114 C-37.43822575 29.46584114 -37.43822575 28.80584114 -37.43822575 28.12584114 C-36.77822575 28.12584114 -36.11822575 28.12584114 -35.43822575 28.12584114 C-35.43822575 27.46584114 -35.43822575 26.80584114 -35.43822575 26.12584114 C-34.77822575 26.12584114 -34.11822575 26.12584114 -33.43822575 26.12584114 C-33.43822575 25.46584114 -33.43822575 24.80584114 -33.43822575 24.12584114 C-32.77822575 24.12584114 -32.11822575 24.12584114 -31.43822575 24.12584114 C-31.43822575 23.46584114 -31.43822575 22.80584114 -31.43822575 22.12584114 C-30.77822575 22.12584114 -30.11822575 22.12584114 -29.43822575 22.12584114 C-29.43822575 21.46584114 -29.43822575 20.80584114 -29.43822575 20.12584114 C-28.77822575 20.12584114 -28.11822575 20.12584114 -27.43822575 20.12584114 C-27.43822575 19.46584114 -27.43822575 18.80584114 -27.43822575 18.12584114 C-26.77822575 18.12584114 -26.11822575 18.12584114 -25.43822575 18.12584114 C-25.43822575 17.46584114 -25.43822575 16.80584114 -25.43822575 16.12584114 C-24.77822575 16.12584114 -24.11822575 16.12584114 -23.43822575 16.12584114 C-23.43822575 15.46584114 -23.43822575 14.80584114 -23.43822575 14.12584114 C-22.77822575 14.12584114 -22.11822575 14.12584114 -21.43822575 14.12584114 C-21.43822575 13.46584114 -21.43822575 12.80584114 -21.43822575 12.12584114 C-20.77822575 12.12584114 -20.11822575 12.12584114 -19.43822575 12.12584114 C-19.43822575 11.46584114 -19.43822575 10.80584114 -19.43822575 10.12584114 C-18.77822575 10.12584114 -18.11822575 10.12584114 -17.43822575 10.12584114 C-17.09791325 9.29052864 -17.09791325 9.29052864 -16.75072575 8.43834114 C-12.57853239 1.08733379 -7.87907576 -0.02567983 0 0 Z " fill="#020404" transform="translate(1190.4382257461548,864.8741588592529)"/>
<path d="M0 0 C33.94842946 -1.29252682 67.89057143 -2.27373452 101.85828361 -2.85965845 C105.90198151 -2.92966651 109.94563146 -3.00215157 113.98925781 -3.07617188 C114.79399688 -3.09086126 115.59873594 -3.10555064 116.42786103 -3.12068516 C127.73210861 -3.33216399 139.02538474 -3.6772161 150.32247305 -4.12912881 C169.74432595 -4.90584874 189.15525333 -5.43461375 208.59375 -5.46875 C209.34312458 -5.47051255 210.09249916 -5.47227509 210.86458206 -5.47409105 C244.96368151 -5.51772488 277.53427025 -5.37650011 303.37072754 19.9901123 C313.1051931 30.1016532 321.20843197 41.2729799 328.35324383 53.3234148 C331.56526702 58.54413532 335.61991145 62.73139721 340 67 C341.10802219 68.09574505 342.21513217 69.19241298 343.3215332 70.28979492 C343.92177811 70.88358444 344.52202301 71.47737396 345.14045715 72.0891571 C347.82877214 74.75071671 350.51179079 77.41758886 353.19458008 80.0847168 C354.61372129 81.49371544 356.03463964 82.90092628 357.45727539 84.30639648 C359.51394799 86.3389425 361.56420994 88.37776357 363.61328125 90.41796875 C364.25380936 91.04817429 364.89433746 91.67837982 365.55427551 92.3276825 C367.07461482 93.84762886 368.54296174 95.41926977 370 97 C370 97.66 370 98.32 370 99 C371.32 99.66 372.64 100.32 374 101 C374 101.66 374 102.32 374 103 C375.32 103.66 376.64 104.32 378 105 C378 105.66 378 106.32 378 107 C379.32 107.66 380.64 108.32 382 109 C382 109.66 382 110.32 382 111 C383.32 111.66 384.64 112.32 386 113 C386 113.66 386 114.32 386 115 C387.32 115.66 388.64 116.32 390 117 C390 117.66 390 118.32 390 119 C391.32 119.66 392.64 120.32 394 121 C394 121.66 394 122.32 394 123 C395.32 123.66 396.64 124.32 398 125 C398 125.66 398 126.32 398 127 C398.99 127.33 399.98 127.66 401 128 C402.35180664 129.37744141 402.35180664 129.37744141 403.84765625 131.2265625 C407.17614167 135.15139061 410.71286222 138.78573439 414.37109375 142.3984375 C414.94195709 142.96363098 415.51282043 143.52882446 416.10098267 144.11114502 C418.48859816 146.47167142 420.88032186 148.82795776 423.27612305 151.18017578 C425.04125453 152.91529364 426.80026685 154.65642841 428.55859375 156.3984375 C429.10535263 156.93173676 429.65211151 157.46503601 430.21543884 158.01449585 C431.51528518 159.30552223 432.76321543 160.64844033 434 162 C434 162.66 434 163.32 434 164 C434.99 164.33 435.98 164.66 437 165 C438.19673687 166.4294357 439.38909815 167.86304856 440.546875 169.32421875 C442.07752801 171.0894073 443.69804769 172.51534799 445.5 174 C448.76428178 176.70147457 451.28518379 179.74222055 454 183 C455.10720754 183.97883565 456.23347435 184.93641225 457.375 185.875 C459.78090875 187.86876525 461.83340388 189.89244104 463.82421875 192.296875 C467.30757313 196.33242337 471.02317082 200.08750383 474.80859375 203.8359375 C475.42381897 204.44561371 476.03904419 205.05528992 476.6729126 205.68344116 C479.25191675 208.2348324 481.83468396 210.78234586 484.42163086 213.32568359 C486.32575984 215.19979838 488.22377397 217.07993322 490.12109375 218.9609375 C491.00685341 219.82650772 491.00685341 219.82650772 491.9105072 220.70956421 C493.31195732 222.10221271 494.66159278 223.54665957 496 225 C496 225.66 496 226.32 496 227 C496.66 227 497.32 227 498 227 C498.66 228.32 499.32 229.64 500 231 C498.7260411 233.03833424 497.38938077 235.03852126 496 237 C495.34 237 494.68 237 494 237 C493.34 238.32 492.68 239.64 492 241 C491.34 241 490.68 241 490 241 C489.34 242.32 488.68 243.64 488 245 C487.34 245 486.68 245 486 245 C485.34 246.32 484.68 247.64 484 249 C483.34 249 482.68 249 482 249 C481.34 250.32 480.68 251.64 480 253 C479.34 253 478.68 253 478 253 C477.34 254.32 476.68 255.64 476 257 C475.34 257 474.68 257 474 257 C473.34 258.32 472.68 259.64 472 261 C471.34 261 470.68 261 470 261 C469.34 262.32 468.68 263.64 468 265 C467.34 265 466.68 265 466 265 C465.34 266.32 464.68 267.64 464 269 C463.34 269 462.68 269 462 269 C461.34 270.32 460.68 271.64 460 273 C459.34 273 458.68 273 458 273 C457.34 274.32 456.68 275.64 456 277 C455.34 277 454.68 277 454 277 C453.34 278.32 452.68 279.64 452 281 C451.34 281 450.68 281 450 281 C449.34 282.32 448.68 283.64 448 285 C447.34 285 446.68 285 446 285 C445.34 286.32 444.68 287.64 444 289 C443.34 289 442.68 289 442 289 C441.34 290.32 440.68 291.64 440 293 C439.34 293 438.68 293 438 293 C437.34 294.32 436.68 295.64 436 297 C435.34 297 434.68 297 434 297 C433.34 298.32 432.68 299.64 432 301 C431.34 301 430.68 301 430 301 C429.34 302.32 428.68 303.64 428 305 C427.34 305 426.68 305 426 305 C425.34 306.32 424.68 307.64 424 309 C423.34 309 422.68 309 422 309 C421.34 310.32 420.68 311.64 420 313 C419.34 313 418.68 313 418 313 C417.34 314.32 416.68 315.64 416 317 C415.34 317 414.68 317 414 317 C413.34 318.32 412.68 319.64 412 321 C411.34 321 410.68 321 410 321 C409.34 322.32 408.68 323.64 408 325 C407.34 325 406.68 325 406 325 C405.34 326.32 404.68 327.64 404 329 C403.34 329 402.68 329 402 329 C401.34 330.32 400.68 331.64 400 333 C399.34 333 398.68 333 398 333 C397.34 334.32 396.68 335.64 396 337 C395.34 337 394.68 337 394 337 C393.34 338.32 392.68 339.64 392 341 C391.34 341 390.68 341 390 341 C389.34 342.32 388.68 343.64 388 345 C387.34 345 386.68 345 386 345 C385.34 346.32 384.68 347.64 384 349 C383.34 349 382.68 349 382 349 C381.34 350.32 380.68 351.64 380 353 C379.34 353 378.68 353 378 353 C377.34 354.32 376.68 355.64 376 357 C375.34 357 374.68 357 374 357 C373.34 358.32 372.68 359.64 372 361 C371.34 361 370.68 361 370 361 C369.34 362.32 368.68 363.64 368 365 C367.34 365 366.68 365 366 365 C365.34 366.32 364.68 367.64 364 369 C363.34 369 362.68 369 362 369 C361.34 370.32 360.68 371.64 360 373 C359.34 373 358.68 373 358 373 C357.34 374.32 356.68 375.64 356 377 C355.34 377 354.68 377 354 377 C353.34 378.32 352.68 379.64 352 381 C351.34 381 350.68 381 350 381 C349.34 382.32 348.68 383.64 348 385 C347.34 385 346.68 385 346 385 C345.34 386.32 344.68 387.64 344 389 C343.34 389 342.68 389 342 389 C341.34 390.32 340.68 391.64 340 393 C339.34 393 338.68 393 338 393 C337.67 393.99 337.34 394.98 337 396 C335.44140625 397.5 335.44140625 397.5 333.5625 399 C331.11225368 400.96428932 329.78619422 402.32070868 328 405 C327.34 405 326.68 405 326 405 C325.34 406.32 324.68 407.64 324 409 C323.34 409 322.68 409 322 409 C321.34 410.32 320.68 411.64 320 413 C319.34 413 318.68 413 318 413 C317.34 414.32 316.68 415.64 316 417 C315.34 417 314.68 417 314 417 C313.34 418.32 312.68 419.64 312 421 C311.34 421 310.68 421 310 421 C309.34 422.32 308.68 423.64 308 425 C307.34 425 306.68 425 306 425 C305.67 425.99 305.34 426.98 305 428 C301.83984375 428.80078125 301.83984375 428.80078125 298 429 C295.12890625 426.98046875 295.12890625 426.98046875 292.5625 424.1875 C291.69753906 423.27355469 290.83257813 422.35960937 289.94140625 421.41796875 C288 419 288 419 288 417 C286.68 416.34 285.36 415.68 284 415 C284 414.34 284 413.68 284 413 C282.68 412.34 281.36 411.68 280 411 C280 410.34 280 409.68 280 409 C279.13375 408.62875 279.13375 408.62875 278.25 408.25 C275.67060021 406.81700012 273.93878408 405.21575324 272 403 C272 402.34 272 401.68 272 401 C270.68 400.34 269.36 399.68 268 399 C268 398.34 268 397.68 268 397 C266.68 396.34 265.36 395.68 264 395 C264 394.34 264 393.68 264 393 C262.68 392.34 261.36 391.68 260 391 C260 390.34 260 389.68 260 389 C258.68 388.34 257.36 387.68 256 387 C256 386.34 256 385.68 256 385 C254.68 384.34 253.36 383.68 252 383 C252 382.34 252 381.68 252 381 C250.68 380.34 249.36 379.68 248 379 C248 378.34 248 377.68 248 377 C246.68 376.34 245.36 375.68 244 375 C244 374.34 244 373.68 244 373 C242.68 372.34 241.36 371.68 240 371 C240 370.34 240 369.68 240 369 C238.68 368.34 237.36 367.68 236 367 C236 366.34 236 365.68 236 365 C234.68 364.34 233.36 363.68 232 363 C232 362.34 232 361.68 232 361 C230.68 360.34 229.36 359.68 228 359 C228 358.34 228 357.68 228 357 C226.68 356.34 225.36 355.68 224 355 C224 354.34 224 353.68 224 353 C222.68 352.34 221.36 351.68 220 351 C220 350.34 220 349.68 220 349 C218.68 348.34 217.36 347.68 216 347 C216 346.34 216 345.68 216 345 C214.68 344.34 213.36 343.68 212 343 C212 342.34 212 341.68 212 341 C210.68 340.34 209.36 339.68 208 339 C208 338.34 208 337.68 208 337 C206.68 336.34 205.36 335.68 204 335 C204 334.34 204 333.68 204 333 C202.68 332.34 201.36 331.68 200 331 C200 330.34 200 329.68 200 329 C198.68 328.34 197.36 327.68 196 327 C196 326.34 196 325.68 196 325 C194.68 324.34 193.36 323.68 192 323 C192 322.34 192 321.68 192 321 C190.68 320.34 189.36 319.68 188 319 C188 318.34 188 317.68 188 317 C186.68 316.34 185.36 315.68 184 315 C184 314.34 184 313.68 184 313 C182.68 312.34 181.36 311.68 180 311 C180 310.34 180 309.68 180 309 C178.68 308.34 177.36 307.68 176 307 C176 306.34 176 305.68 176 305 C175.443125 304.79375 174.88625 304.5875 174.3125 304.375 C171.70908135 302.82702134 170.20603811 300.92265493 168.34375 298.56640625 C166.63888131 296.57904479 164.63868964 295.03490069 162.59765625 293.40625 C160.06985477 291.18129027 157.97394738 288.60623031 155.7890625 286.05078125 C152.15246116 281.88218801 148.29332128 278.05082354 144 274.5625 C141.73783906 272.63023753 140.09124377 270.99656345 138.2265625 268.75390625 C132.32646482 261.93530939 125.77979968 255.71351048 119.375 249.375 C116.77568457 246.80244223 114.17981683 244.22647506 111.5859375 241.6484375 C110.99936371 241.07016205 110.41278992 240.4918866 109.80844116 239.89608765 C106.31037625 236.41874415 103.12536545 232.81512038 100 229 C98.86649863 227.96255807 97.70429666 226.9543483 96.5 226 C93.23571822 223.29852543 90.71481621 220.25777945 88 217 C86.85153776 215.97914468 85.68378078 214.97968065 84.5 214 C81.23571822 211.29852543 78.71481621 208.25777945 76 205 C74.85153776 203.97914468 73.68378078 202.97968065 72.5 202 C69.23571822 199.29852543 66.71481621 196.25777945 64 193 C62.89279246 192.02116435 61.76652565 191.06358775 60.625 190.125 C58.06963277 188.01357417 55.89291582 185.81679294 53.75366211 183.28662109 C50.12510722 179.08708082 46.27313277 175.17762911 42.31640625 171.2890625 C40.88073294 169.86601296 39.44518966 168.44283223 38.00976562 167.01953125 C35.77081401 164.80556407 33.5302738 162.59324756 31.28735352 160.38330078 C29.10522957 158.23119197 26.92921352 156.07305801 24.75390625 153.9140625 C24.07590469 153.24952057 23.39790314 152.58497864 22.69935608 151.90029907 C22.08128586 151.2856076 21.46321564 150.67091614 20.82641602 150.03759766 C20.27905289 149.49769196 19.73168976 148.95778625 19.16773987 148.40151978 C18 147 18 147 18 145 C17.38125 144.7525 16.7625 144.505 16.125 144.25 C13.64931313 142.79371361 13.04874998 141.62187494 12 139 C11.34 139 10.68 139 10 139 C10 138.34 10 137.68 10 137 C9.34 137 8.68 137 8 137 C8 136.34 8 135.68 8 135 C7.34 135 6.68 135 6 135 C6 134.34 6 133.68 6 133 C5.34 133 4.68 133 4 133 C4 132.34 4 131.68 4 131 C3.34 131 2.68 131 2 131 C-0.21909158 127.67136263 -0.24810087 126.65549204 -0.24050903 122.77986145 C-0.24325836 121.69872574 -0.24600769 120.61759003 -0.24884033 119.50369263 C-0.24164978 118.31758392 -0.23445923 117.13147522 -0.22705078 115.90942383 C-0.22734283 114.66052872 -0.22763489 113.41163361 -0.22793579 112.12489319 C-0.22678024 108.69946595 -0.21674185 105.27427905 -0.20278788 101.84889436 C-0.19029513 98.26944323 -0.18911117 94.68998898 -0.18673706 91.11051941 C-0.180518 84.33197224 -0.16410144 77.5534895 -0.14403808 70.77497071 C-0.12169231 63.05800746 -0.11068898 55.34104114 -0.10064721 47.6240536 C-0.07973557 31.74933174 -0.04455134 15.87467417 0 0 Z " fill="#030506" transform="translate(245,482)"/>
<path d="M0 0 C0.94700785 -0.00260775 1.8940157 -0.00521549 2.86972076 -0.00790226 C3.92241737 -0.00567154 4.97511399 -0.00344082 6.0597105 -0.0011425 C7.16846891 -0.00270249 8.27722731 -0.00426248 9.41958445 -0.00586975 C13.1660693 -0.00988506 16.91251423 -0.00668802 20.65899944 -0.00355339 C23.33242698 -0.00490722 26.00585168 -0.00665064 28.67927837 -0.00886345 C35.20636609 -0.01332226 41.73344234 -0.01234406 48.26053051 -0.00945081 C53.56463118 -0.00719663 58.86872862 -0.00688432 64.17282963 -0.00797462 C65.30324144 -0.00820447 65.30324144 -0.00820447 66.45648986 -0.00843897 C67.9872494 -0.00875868 69.51800894 -0.00908289 71.04876848 -0.00941156 C85.42149793 -0.01226682 99.79422101 -0.0089789 114.16694941 -0.00361119 C126.50544845 0.00085417 138.84393808 0.00008321 151.18243694 -0.00452995 C165.49747726 -0.00987958 179.81251199 -0.01198926 194.12755316 -0.00891769 C195.65374354 -0.00859913 197.17993392 -0.00828476 198.70612431 -0.00797462 C199.45710446 -0.00782035 200.20808462 -0.00766607 200.98182175 -0.00750712 C206.27940074 -0.00664293 211.57697619 -0.0081028 216.87455463 -0.01045418 C223.33100478 -0.0132568 229.78744277 -0.01250422 236.24389151 -0.00717343 C239.53951064 -0.00454227 242.83510526 -0.00405825 246.13072491 -0.00682259 C249.70041699 -0.00954139 253.27005142 -0.00614384 256.8397398 -0.0011425 C258.40874648 -0.00448858 258.40874648 -0.00448858 260.00945026 -0.00790226 C261.44169689 -0.00399064 261.44169689 -0.00399064 262.90287781 0 C263.72708829 0.00016235 264.55129878 0.0003247 265.40048534 0.00049198 C267.6040125 0.12381582 269.52453777 0.51478357 271.64020061 1.12584114 C271.66306537 41.49274448 271.68069801 81.85964698 271.69126594 122.22655549 C271.69251672 126.98701075 271.69381104 131.74746599 271.69513226 136.50792122 C271.69552572 137.92956508 271.69552572 137.92956508 271.69592714 139.37992901 C271.70028418 154.74695555 271.70817191 170.11397836 271.71735341 185.48100268 C271.726689 201.23677017 271.73225602 216.99253571 271.73428911 232.74830586 C271.73566453 242.47860163 271.74001617 252.20888689 271.74811708 261.93917943 C271.75338337 268.60217533 271.75500518 275.26516575 271.75370199 281.92816358 C271.75305843 285.7783263 271.75407818 289.62847058 271.75940609 293.47863007 C271.76512677 297.64277922 271.76320186 301.80688857 271.76045513 305.97104073 C271.76482439 307.81681738 271.76482439 307.81681738 271.76928192 309.69988245 C271.76729088 310.80610989 271.76529983 311.91233734 271.76324844 313.05208683 C271.76362816 314.01467787 271.76400788 314.9772689 271.76439911 315.96902937 C271.64020061 318.12584114 271.64020061 318.12584114 270.64020061 319.12584114 C269.16498611 319.22258206 267.68514146 319.24955883 266.2067585 319.24888897 C265.24335027 319.25088002 264.27994204 319.25287107 263.28733963 319.25492245 C262.21635074 319.25200961 261.14536185 319.24909677 260.04191875 319.24609566 C258.91400388 319.24695008 257.786089 319.24780451 256.62399489 319.24868482 C252.81289343 319.25034291 249.00183518 319.24481289 245.19073772 319.23936653 C242.47141269 319.23852914 239.75208852 319.23919819 237.03276348 319.23980904 C231.16196965 319.24033447 225.2911869 319.23718566 219.42039585 319.2315712 C210.93212241 319.2234588 202.44385434 319.22084125 193.95557744 319.21958321 C180.18532835 319.21739228 166.41508517 319.21073108 152.64483929 319.20128059 C139.26495678 319.19210754 125.88507587 319.18502618 112.50519085 319.18077278 C111.26896877 319.1803787 111.26896877 319.1803787 110.0077725 319.17997665 C105.87343948 319.17867165 101.73910644 319.17740793 97.6047734 319.17616475 C63.28324489 319.16579086 28.96172339 319.14817143 -5.35979939 319.12584114 C-6.08974151 315.2038511 -6.48215606 311.50503122 -6.47002316 307.51772785 C-6.46914751 306.41957884 -6.46827186 305.32142983 -6.46736968 304.19000357 C-6.45818717 302.39627852 -6.45818717 302.39627852 -6.44881916 300.5663166 C-6.4462956 299.28782728 -6.44377204 298.00933797 -6.441172 296.69210654 C-6.43402795 293.15027819 -6.42053448 289.60849828 -6.40598106 286.06669366 C-6.39137855 282.24466824 -6.38264261 278.42262876 -6.37315083 274.60058784 C-6.3536117 267.11731891 -6.32856479 259.63407809 -6.30154778 252.15083279 C-6.27970255 246.07213682 -6.25985309 239.99343737 -6.24143314 233.91473007 C-6.23881102 233.04991903 -6.23618889 232.18510798 -6.2334873 231.29409054 C-6.22816979 229.53736149 -6.222857 227.78063243 -6.21754889 226.02390335 C-6.16754735 209.5528981 -6.11131548 193.08191862 -6.05294316 176.61094121 C-6.00295351 162.46479746 -5.95825386 148.31864503 -5.91741657 134.172472 C-5.87001399 117.75303073 -5.81939974 101.33360465 -5.76359117 84.91418964 C-5.7576558 83.16541757 -5.75172445 81.41664548 -5.74579716 79.66787338 C-5.74287877 78.80738162 -5.73996039 77.94688985 -5.73695356 77.06032258 C-5.71656532 70.9833223 -5.69848898 64.90631762 -5.68129063 58.82930756 C-5.66029141 51.43195145 -5.63576512 44.03461724 -5.60664417 36.63728847 C-5.59186378 32.86000303 -5.57871105 29.08272998 -5.56983852 25.30542564 C-5.56018946 21.22040009 -5.54288969 17.1354441 -5.52474689 13.05044746 C-5.52308667 11.84347716 -5.52142644 10.63650685 -5.51971591 9.39296168 C-5.51362476 8.30785141 -5.50753362 7.22274113 -5.5012579 6.10474873 C-5.49805778 5.16059894 -5.49485767 4.21644915 -5.49156058 3.24368876 C-5.25143094 -0.61600591 -3.40012999 0.00067015 0 0 Z " fill="#010302" transform="translate(979.3597993850708,1143.874158859253)"/>
<path d="" fill="#000000" transform="translate(0,0)"/>
<path d="" fill="#000000" transform="translate(0,0)"/>
<path d="" fill="#000000" transform="translate(0,0)"/>
<path d="" fill="#000000" transform="translate(0,0)"/>
</svg>
